<svg xmlns="http://www.w3.org/2000/svg" width="115" height="115" viewBox="0 0 115 115">
    <g fill="none" fill-rule="evenodd">
        <circle cx="57.5" cy="57.5" r="57.5" fill="#F79834"/>
        <g stroke="#FFF" stroke-linecap="round" stroke-linejoin="round" stroke-width="2">
            <path d="M83.748 41.5H72.294a1.8 1.8 0 0 1-1.8-1.8v-9.9a1.8 1.8 0 0 1 1.8-1.8h11.454a1.8 1.8 0 0 1 1.8 1.8v3.021L92 29.93v9.642l-6.452-2.892V39.7a1.8 1.8 0 0 1-1.8 1.8zM41.818 72.55v-1.386c0-1.525 1.164-3.113 2.584-3.532l6.825-2.012.505-2.178M61.45 63.327l.53 2.293 6.823 2.01c1.423.418 2.587 2.01 2.587 3.534v1.386M64.22 54.323c0 5.596-3.607 11.027-7.616 11.027-4.009 0-7.617-5.43-7.617-11.027 0-5.589 2.37-9.223 7.617-9.223s7.617 3.628 7.617 9.223zM85.727 46.9v27"/>
            <path d="M27.48 73.9V40.656c0-1.362 1.329-2.756 2.846-2.756H66.42M64.605 76.6l-1.867 1.8H50.47l-1.867-1.8H24.8a1.8 1.8 0 0 0-1.8 1.8v.9c0 1.493 1.434 2.7 3.2 2.7h60.807c1.77 0 3.2-1.207 3.2-2.7v-.9a1.8 1.8 0 0 0-1.8-1.8H64.606z"/>
        </g>
    </g>
</svg>
