<?xml version="1.0" encoding="UTF-8" standalone="no"?>
<svg
   xmlns:dc="http://purl.org/dc/elements/1.1/"
   xmlns:cc="http://creativecommons.org/ns#"
   xmlns:rdf="http://www.w3.org/1999/02/22-rdf-syntax-ns#"
   xmlns:svg="http://www.w3.org/2000/svg"
   xmlns="http://www.w3.org/2000/svg"
   xmlns:sodipodi="http://sodipodi.sourceforge.net/DTD/sodipodi-0.dtd"
   xmlns:inkscape="http://www.inkscape.org/namespaces/inkscape"
   version="1.1"
   id="svg2"
   xml:space="preserve"
   width="615.11603"
   height="203.87601"
   viewBox="0 0 615.11603 203.87601"
   sodipodi:docname="logo13-full-AI.ai"><metadata
     id="metadata8"><rdf:RDF><cc:Work
         rdf:about=""><dc:format>image/svg+xml</dc:format><dc:type
           rdf:resource="http://purl.org/dc/dcmitype/StillImage" /></cc:Work></rdf:RDF></metadata><defs
     id="defs6"><clipPath
       clipPathUnits="userSpaceOnUse"
       id="clipPath18"><path
         d="M 0,152.907 H 461.337 V 0 H 0 Z"
         id="path16" /></clipPath></defs><sodipodi:namedview
     pagecolor="#ffffff"
     bordercolor="#666666"
     borderopacity="1"
     objecttolerance="10"
     gridtolerance="10"
     guidetolerance="10"
     inkscape:pageopacity="0"
     inkscape:pageshadow="2"
     inkscape:window-width="640"
     inkscape:window-height="480"
     id="namedview4" /><g
     id="g10"
     inkscape:groupmode="layer"
     inkscape:label="logo13-full-AI"
     transform="matrix(1.3333333,0,0,-1.3333333,0,203.876)"><g
       id="g12"><g
         id="g14"
         clip-path="url(#clipPath18)"><g
           id="g20"
           transform="translate(199.5341,109.5112)"><path
             d="m 0,0 c 0,3.438 1,6.158 3,8.159 1.998,1.998 4.718,2.999 8.158,2.999 H 50.75 c 0.559,-0.881 1.06,-2.04 1.5,-3.479 0.439,-1.44 0.661,-2.96 0.661,-4.559 0,-3.041 -0.661,-5.201 -1.981,-6.479 -1.319,-1.281 -3.058,-1.92 -5.219,-1.92 H 20.396 v -11.158 h 26.995 c 0.559,-0.881 1.06,-2.021 1.5,-3.419 0.439,-1.4 0.66,-2.9 0.66,-4.499 0,-3.041 -0.641,-5.201 -1.92,-6.478 -1.28,-1.282 -3,-1.92 -5.159,-1.92 H 20.396 v -12.598 h 30.835 c 0.559,-0.882 1.059,-2.04 1.5,-3.48 0.437,-1.439 0.659,-2.96 0.659,-4.559 0,-3.04 -0.659,-5.219 -1.979,-6.538 -1.321,-1.321 -3.06,-1.981 -5.219,-1.981 H 11.158 c -3.44,0 -6.16,1 -8.158,3 -2,1.998 -3,4.719 -3,8.159 z"
             style="fill:#000000;fill-opacity:1;fill-rule:nonzero;stroke:none"
             id="path22" /></g><g
           id="g24"
           transform="translate(293.476,92.1147)"><path
             d="m 0,0 c -4.32,0 -7.64,-1.241 -9.959,-3.719 -2.32,-2.481 -3.479,-6.239 -3.479,-11.279 0,-4.96 1.08,-8.698 3.239,-11.217 2.16,-2.52 5.279,-3.78 9.359,-3.78 1.44,0 2.738,0.22 3.899,0.661 1.158,0.438 2.058,0.939 2.699,1.5 V -1.44 C 4.157,-0.48 2.238,0 0,0 m -34.074,-14.998 c 0,5.28 0.799,9.857 2.399,13.738 1.599,3.879 3.82,7.097 6.659,9.658 2.838,2.559 6.159,4.458 9.958,5.699 3.798,1.239 7.898,1.86 12.298,1.86 1.599,0 3.158,-0.141 4.679,-0.42 1.519,-0.281 2.76,-0.62 3.72,-1.02 v 19.437 c 0.798,0.239 2.078,0.498 3.839,0.779 1.758,0.28 3.557,0.42 5.399,0.42 1.758,0 3.338,-0.12 4.738,-0.36 1.399,-0.24 2.58,-0.72 3.54,-1.439 0.96,-0.72 1.68,-1.701 2.159,-2.94 0.481,-1.241 0.721,-2.861 0.721,-4.859 v -56.869 c 0,-3.761 -1.761,-6.761 -5.279,-8.999 -2.321,-1.52 -5.32,-2.86 -8.998,-4.019 -3.681,-1.159 -7.919,-1.74 -12.719,-1.74 -5.199,0 -9.858,0.72 -13.977,2.16 -4.121,1.44 -7.599,3.519 -10.438,6.239 -2.84,2.718 -4.999,5.978 -6.478,9.778 -1.482,3.798 -2.22,8.099 -2.22,12.897"
             style="fill:#000000;fill-opacity:1;fill-rule:nonzero;stroke:none"
             id="path26" /></g><g
           id="g28"
           transform="translate(363.7827,92.1147)"><path
             d="m 0,0 c -4.32,0 -7.641,-1.241 -9.959,-3.719 -2.32,-2.481 -3.479,-6.239 -3.479,-11.279 0,-4.96 1.081,-8.698 3.239,-11.217 2.16,-2.52 5.279,-3.78 9.359,-3.78 1.44,0 2.738,0.22 3.899,0.661 1.158,0.438 2.058,0.939 2.699,1.5 V -1.44 C 4.158,-0.48 2.238,0 0,0 m -34.074,-14.998 c 0,5.28 0.799,9.857 2.4,13.738 1.598,3.879 3.819,7.097 6.658,9.658 2.838,2.559 6.159,4.458 9.957,5.699 3.799,1.239 7.899,1.86 12.299,1.86 1.6,0 3.158,-0.141 4.68,-0.42 1.518,-0.281 2.758,-0.62 3.719,-1.02 v 19.437 c 0.798,0.239 2.078,0.498 3.84,0.779 1.757,0.28 3.556,0.42 5.398,0.42 1.758,0 3.338,-0.12 4.738,-0.36 1.399,-0.24 2.58,-0.72 3.539,-1.439 0.961,-0.72 1.68,-1.701 2.16,-2.94 0.481,-1.241 0.721,-2.861 0.721,-4.859 v -56.869 c 0,-3.761 -1.762,-6.761 -5.279,-8.999 -2.32,-1.52 -5.32,-2.86 -8.998,-4.019 -3.68,-1.159 -7.92,-1.74 -12.719,-1.74 -5.199,0 -9.857,0.72 -13.977,2.16 -4.121,1.44 -7.599,3.519 -10.437,6.239 -2.842,2.718 -5,5.978 -6.48,9.778 -1.481,3.798 -2.219,8.099 -2.219,12.897"
             style="fill:#000000;fill-opacity:1;fill-rule:nonzero;stroke:none"
             id="path30" /></g><g
           id="g32"
           transform="translate(411.6528,62.8398)"><path
             d="m 0,0 c -0.882,1.999 -1.82,4.239 -2.819,6.719 -1.002,2.478 -2.04,5.318 -3.12,8.518 -1.08,3.199 -2.201,6.858 -3.36,10.978 -1.16,4.119 -2.381,8.858 -3.659,14.218 1.119,1.119 2.619,2.099 4.499,2.939 1.879,0.84 3.938,1.26 6.179,1.26 2.799,0 5.118,-0.581 6.959,-1.74 1.839,-1.16 3.198,-3.34 4.079,-6.538 L 18.236,3.359 h 0.48 c 0.96,2.719 1.899,5.679 2.819,8.879 0.919,3.198 1.819,6.497 2.7,9.898 0.879,3.399 1.699,6.798 2.459,10.198 0.76,3.399 1.42,6.738 1.98,10.018 2.88,1.519 6.039,2.28 9.478,2.28 2.799,0 5.119,-0.6 6.959,-1.8 1.839,-1.2 2.76,-3.28 2.76,-6.239 0,-2.159 -0.281,-4.66 -0.84,-7.498 -0.56,-2.84 -1.302,-5.86 -2.219,-9.058 -0.921,-3.201 -2.001,-6.5 -3.24,-9.898 -1.241,-3.402 -2.541,-6.74 -3.899,-10.019 -1.361,-3.28 -2.76,-6.379 -4.199,-9.298 -1.441,-2.921 -2.84,-5.54 -4.2,-7.858 -2.24,-3.918 -4.319,-7.118 -6.239,-9.599 -1.92,-2.478 -3.761,-4.419 -5.518,-5.819 -1.761,-1.399 -3.521,-2.358 -5.28,-2.879 -1.759,-0.52 -3.599,-0.78 -5.518,-0.78 -3.36,0 -6.08,1.001 -8.159,3 -2.081,2 -3.32,4.6 -3.719,7.798 2.558,2.001 5.117,4.22 7.679,6.659 2.558,2.44 4.877,4.937 6.958,7.499 -1.361,0.398 -2.82,1.338 -4.379,2.819 C 3.539,-6.859 1.839,-4.079 0,0"
             style="fill:#000000;fill-opacity:1;fill-rule:nonzero;stroke:none"
             id="path34" /></g><g
           id="g36"
           transform="translate(155.7856,39.7148)"><path
             d="M 0,0 H -18 L -38,-20 -58,0 -136.667,-0.333 V 93 H 0 Z m 17.333,97.333 c -2,14.334 -17,14 -17,14 H -139 c -15.333,-3 -15,-18 -15,-18 0,0 -0.333,-76.666 0,-95.666 2.667,-15.334 18.667,-15.334 18.667,-15.334 L -64.666,-18 -49.333,-32.667 c 11.667,-12 23,0 23,0 0,0 8.666,8.1 15.666,14.767 28,-2.667 28,18.567 28,18.567 0,0 0.667,77 0,96.666"
             style="fill:#000000;fill-opacity:1;fill-rule:nonzero;stroke:none"
             id="path38" /></g><g
           id="g40"
           transform="translate(75.9526,102.3813)"><path
             d="m 0,0 c 0,-4.51 -3.657,-8.167 -8.167,-8.167 -4.51,0 -8.167,3.657 -8.167,8.167 0,4.511 3.657,8.167 8.167,8.167 C -3.657,8.167 0,4.511 0,0"
             style="fill:#000000;fill-opacity:1;fill-rule:nonzero;stroke:none"
             id="path42" /></g><g
           id="g44"
           transform="translate(115.6191,102.3813)"><path
             d="m 0,0 c 0,-4.51 -3.656,-8.167 -8.167,-8.167 -4.51,0 -8.166,3.657 -8.166,8.167 0,4.511 3.656,8.167 8.166,8.167 C -3.656,8.167 0,4.511 0,0"
             style="fill:#000000;fill-opacity:1;fill-rule:nonzero;stroke:none"
             id="path46" /></g><g
           id="g48"
           transform="translate(140.1191,88.4668)"><path
             d="m 0,0 c 0,3.175 -2.573,5.748 -5.748,5.748 -0.988,0 -1.919,-0.25 -2.731,-0.689 -0.319,-0.13 -0.61,-0.28 -0.858,-0.44 -16.667,-15.667 -31.427,-18.23 -43.094,-18.897 -22.423,-1.558 -35.824,12.013 -42.925,17.881 -1.054,1.307 -2.666,2.145 -4.475,2.145 -3.175,0 -5.748,-2.573 -5.748,-5.748 -0.112,-2.75 1.412,-4.085 1.412,-4.085 19.684,-21.892 41.736,-21.86 51.421,-21.86 33.211,1.567 47.863,17.361 51.432,22.287 C -0.493,-2.664 0,-1.389 0,0"
             style="fill:#000000;fill-opacity:1;fill-rule:nonzero;stroke:none"
             id="path50" /></g></g></g></g></svg>
