<?xml version="1.0" standalone="no"?>
<!DOCTYPE svg PUBLIC "-//W3C//DTD SVG 20010904//EN"
 "http://www.w3.org/TR/2001/REC-SVG-20010904/DTD/svg10.dtd">
<svg version="1.0" xmlns="http://www.w3.org/2000/svg"
 width="198.000000pt" height="169.000000pt" viewBox="0 0 198.000000 169.000000"
 preserveAspectRatio="xMidYMid meet">

<g transform="translate(0.000000,169.000000) scale(0.100000,-0.100000)"
fill="#000000" stroke="none">
<path d="M260 1549 c-13 -6 -39 -21 -57 -35 -62 -47 -64 -70 -61 -620 3 -552
1 -536 82 -591 l41 -28 387 -5 386 -5 64 -69 c81 -90 138 -126 195 -126 62 0
107 27 198 119 l80 81 70 0 c105 1 177 40 204 113 7 19 11 202 11 539 l0 511
-25 43 c-16 28 -39 49 -68 63 -43 21 -52 21 -763 20 -447 0 -728 -4 -744 -10z
m1430 -629 l0 -470 -92 0 -93 0 -103 -102 -103 -103 -97 103 -97 103 -392 -1
-393 0 0 470 0 470 685 0 685 0 0 -470z"/>
<path d="M745 1135 c-64 -63 5 -163 92 -134 88 29 62 159 -32 159 -25 0 -44
-8 -60 -25z"/>
<path d="M1144 1136 c-21 -18 -28 -32 -28 -60 0 -50 31 -81 84 -81 47 0 76 25
86 72 5 27 1 37 -24 63 -38 37 -80 40 -118 6z"/>
<path d="M500 970 c-31 -31 -24 -55 31 -107 138 -131 279 -186 474 -187 88 0
125 4 185 23 102 31 196 82 264 142 70 63 81 81 65 112 -28 52 -56 49 -123
-12 -98 -89 -201 -137 -324 -151 -177 -20 -328 31 -475 158 -54 47 -69 50 -97
22z"/>
</g>
</svg>
