<?xml version="1.0" encoding="UTF-8" standalone="no"?>
<svg
   xmlns:dc="http://purl.org/dc/elements/1.1/"
   xmlns:cc="http://creativecommons.org/ns#"
   xmlns:rdf="http://www.w3.org/1999/02/22-rdf-syntax-ns#"
   xmlns:svg="http://www.w3.org/2000/svg"
   xmlns="http://www.w3.org/2000/svg"
   xmlns:sodipodi="http://sodipodi.sourceforge.net/DTD/sodipodi-0.dtd"
   xmlns:inkscape="http://www.inkscape.org/namespaces/inkscape"
   version="1.1"
   id="svg2"
   xml:space="preserve"
   width="230.55067"
   height="200.31467"
   viewBox="0 0 230.55067 200.31467"
   sodipodi:docname="Logo_Eddy_AI.ai"><metadata
     id="metadata8"><rdf:RDF><cc:Work
         rdf:about=""><dc:format>image/svg+xml</dc:format><dc:type
           rdf:resource="http://purl.org/dc/dcmitype/StillImage" /></cc:Work></rdf:RDF></metadata><defs
     id="defs6"><clipPath
       clipPathUnits="userSpaceOnUse"
       id="clipPath18"><path
         d="M 0,150.236 H 172.913 V 0 H 0 Z"
         id="path16" /></clipPath></defs><sodipodi:namedview
     pagecolor="#ffffff"
     bordercolor="#666666"
     borderopacity="1"
     objecttolerance="10"
     gridtolerance="10"
     guidetolerance="10"
     inkscape:pageopacity="0"
     inkscape:pageshadow="2"
     inkscape:window-width="640"
     inkscape:window-height="480"
     id="namedview4" /><g
     id="g10"
     inkscape:groupmode="layer"
     inkscape:label="Logo_Eddy_AI"
     transform="matrix(1.3333333,0,0,-1.3333333,0,200.31467)"><g
       id="g12"><g
         id="g14"
         clip-path="url(#clipPath18)"><g
           id="g20"
           transform="translate(154.7161,38.4514)"><path
             d="M 0,0 H -18 L -38,-20 -58,0 -136.667,-0.334 V 93 H 0 Z m 17.333,97.333 c -2,14.334 -17,14 -17,14 H -139 c -15.333,-3 -15,-18 -15,-18 0,0 -0.333,-76.667 0,-95.667 2.667,-15.333 18.667,-15.333 18.667,-15.333 L -64.667,-18 -49.333,-32.667 c 11.666,-12 23,0 23,0 0,0 8.666,8.1 15.666,14.766 28,-2.666 28,18.567 28,18.567 0,0 0.667,77.001 0,96.667"
             style="fill:#000000;fill-opacity:1;fill-rule:nonzero;stroke:none"
             id="path22" /></g><g
           id="g24"
           transform="translate(74.8826,101.1179)"><path
             d="m 0,0 c 0,-4.51 -3.656,-8.167 -8.167,-8.167 -4.51,0 -8.166,3.657 -8.166,8.167 0,4.51 3.656,8.167 8.166,8.167 C -3.656,8.167 0,4.51 0,0"
             style="fill:#000000;fill-opacity:1;fill-rule:nonzero;stroke:none"
             id="path26" /></g><g
           id="g28"
           transform="translate(114.5491,101.1179)"><path
             d="m 0,0 c 0,-4.51 -3.656,-8.167 -8.166,-8.167 -4.511,0 -8.167,3.657 -8.167,8.167 0,4.51 3.656,8.167 8.167,8.167 C -3.656,8.167 0,4.51 0,0"
             style="fill:#000000;fill-opacity:1;fill-rule:nonzero;stroke:none"
             id="path30" /></g><g
           id="g32"
           transform="translate(139.0491,87.2034)"><path
             d="m 0,0 c 0,3.174 -2.573,5.748 -5.748,5.748 -0.988,0 -1.918,-0.25 -2.731,-0.69 -0.319,-0.13 -0.61,-0.279 -0.858,-0.439 -16.667,-15.667 -31.427,-18.231 -43.094,-18.898 -22.423,-1.557 -35.823,12.014 -42.925,17.882 -1.054,1.307 -2.665,2.145 -4.475,2.145 -3.174,0 -5.748,-2.574 -5.748,-5.748 -0.112,-2.75 1.412,-4.085 1.412,-4.085 19.684,-21.893 41.736,-21.86 51.422,-21.86 33.21,1.567 47.862,17.36 51.432,22.287 C -0.493,-2.664 0,-1.39 0,0"
             style="fill:#000000;fill-opacity:1;fill-rule:nonzero;stroke:none"
             id="path34" /></g></g></g></g></svg>
